<svg xmlns="http://www.w3.org/2000/svg" xmlns:xlink="http://www.w3.org/1999/xlink" viewBox="0 0 960 540"><rect id="backgroundrect" width="100%" height="100%" x="0" y="0" fill="none" stroke="none"/><g class="currentLayer" style=""><title>Layer 1</title><g id="svg_1" class="selected"><g id="svg_2" opacity="0.86"><path d="M182.2,167.5 C190.9,186.6 184.4,210.3 172.6,227.9 C160.7,245.5 143.3,257.1 126.4,256.9 C109.4,256.6 92.8,244.7 81.7,227.5 C70.6,210.4 65.1,188 73.4,169.1 C81.7,150.2 103.8,134.8 126.8,134.3 C149.8,133.9 173.5,148.3 182.2,167.5 z" stroke="#6495ed" fill="none" stroke-width="12" id="svg_3" opacity="0.86"/></g><g id="svg_4" opacity="0.86"><path d="M907.9,162.6 C916.8,180.1 917.1,200.5 908.4,217.4 C899.6,234.3 881.8,247.7 863.4,248 C845,248.3 826,235.6 818.5,219.4 C811,203.3 815,183.6 824.5,165.8 C834,148 849,131.9 865.2,131.2 C881.5,130.5 899,145.1 907.9,162.6 z" stroke="#6495ed" fill="none" stroke-width="12" id="svg_5" opacity="0.86"/></g><g id="svg_6" opacity="0.86"><path d="M700,358.4 C705.2,369.9 704.3,382.5 698.6,392.8 C692.9,403.1 682.5,411.1 670.7,411.8 C659,412.5 645.9,406.1 638.7,394.9 C631.4,383.7 629.9,367.7 636.4,355.5 C642.9,343.2 657.5,334.7 670.4,335.6 C683.4,336.5 694.8,346.9 700,358.4 z" stroke="#6495ed" fill="none" stroke-width="12" id="svg_7" opacity="0.86"/></g><g id="svg_8" opacity="0.86"><path d="M343.6,270 C347.5,277.6 348.6,286.1 345.1,293.6 C341.7,301.1 333.9,307.6 326.7,307.2 C319.6,306.8 313.3,299.4 308.3,291 C303.4,282.6 299.9,273.3 303,266 C306.2,258.8 316.1,253.7 324.5,254.5 C332.8,255.4 339.7,262.3 343.6,270 z" stroke="#6495ed" fill="none" stroke-width="12" id="svg_9" opacity="0.86"/></g><g id="svg_10" opacity="0.86"><path d="M555,118.7 C558.7,126.1 556.4,136 551.6,143.9 C546.8,151.9 539.4,158 531.6,158.3 C523.8,158.5 515.5,152.9 511.6,145.4 C507.7,138 508.1,128.7 512.2,121.1 C516.3,113.4 524.1,107.4 532.9,106.9 C541.6,106.4 551.3,111.4 555,118.7 z" stroke="#6495ed" fill="none" stroke-width="12" id="svg_11" opacity="0.86"/></g><g id="svg_12" opacity="0.86"><path d="M903.5,374.8 C912.2,390.3 914.3,409.3 906.6,423.2 C898.9,437.1 881.5,446 866.2,444.8 C850.9,443.5 837.8,432.1 831,418.7 C824.2,405.3 823.8,390 830.4,375.7 C837,361.4 850.5,348.2 864.9,347.7 C879.4,347.1 894.7,359.3 903.5,374.8 z" stroke="#6495ed" fill="none" stroke-width="12" id="svg_13" opacity="0.86"/></g><g id="svg_14" opacity="0.86"><path d="M137,378.9 C143.3,391 142.8,406.1 136.2,418.8 C129.6,431.4 116.8,441.7 102.9,442.3 C89.1,442.9 74.2,433.9 65,419.8 C55.8,405.6 52.4,386.4 59.8,373.7 C67.3,360.9 85.6,354.6 101.5,356.1 C117.3,357.6 130.6,366.8 137,378.9 z" stroke="#6495ed" fill="none" stroke-width="12" id="svg_15" opacity="0.86"/></g><g id="svg_16" opacity="0.86"><path d="M494.2,424.3 C496.4,427.9 496.8,432.7 494.8,436.4 C492.7,440.2 488.4,442.8 483.5,443.1 C478.6,443.4 473.1,441.4 470.7,437.4 C468.2,433.5 468.8,427.5 471.5,423.6 C474.2,419.8 479.1,418 483.6,418.3 C488,418.5 492.1,420.8 494.2,424.3 z" stroke="#6495ed" fill="none" stroke-width="12" id="svg_17" opacity="0.86"/></g><g id="svg_18" opacity="0.86"><path d="M301.5,75.7 C306,84.7 304.2,96.3 298.8,104.7 C293.3,113.2 284.2,118.5 275,118.6 C265.8,118.6 256.5,113.3 251.9,105.3 C247.3,97.3 247.3,86.7 251.9,77.7 C256.6,68.8 265.8,61.5 275.9,61 C285.9,60.5 296.9,66.8 301.5,75.7 z" stroke="#6495ed" fill="none" stroke-width="12" id="svg_19" opacity="0.86"/></g></g></g></svg>