<svg id="visual" viewBox="0 0 960 540" width="960" height="540" xmlns="http://www.w3.org/2000/svg" xmlns:xlink="http://www.w3.org/1999/xlink" version="1.1"><g><g transform="translate(126 204)"><path d="M56.2 -36.5C64.9 -17.4 58.4 6.3 46.6 23.9C34.7 41.5 17.3 53.1 0.4 52.9C-16.6 52.6 -33.2 40.7 -44.3 23.5C-55.4 6.4 -60.9 -16 -52.6 -34.9C-44.3 -53.8 -22.2 -69.2 0.8 -69.7C23.8 -70.1 47.5 -55.7 56.2 -36.5Z" stroke="#6495ed" fill="none" stroke-width="12"></path></g><g transform="translate(864 190)"><path d="M43.9 -27.4C52.8 -9.9 53.1 10.5 44.4 27.4C35.6 44.3 17.8 57.7 -0.6 58C-19 58.3 -38 45.6 -45.5 29.4C-53 13.3 -49 -6.4 -39.5 -24.2C-30 -42 -15 -58.1 1.2 -58.8C17.5 -59.5 35 -44.9 43.9 -27.4Z" stroke="#6495ed" fill="none" stroke-width="12"></path></g><g transform="translate(672 377)"><path d="M28 -18.6C33.2 -7.1 32.3 5.5 26.6 15.8C20.9 26.1 10.5 34.1 -1.3 34.8C-13 35.5 -26.1 29.1 -33.3 17.9C-40.6 6.7 -42.1 -9.3 -35.6 -21.5C-29.1 -33.8 -14.5 -42.3 -1.6 -41.4C11.4 -40.5 22.8 -30.1 28 -18.6Z" stroke="#6495ed" fill="none" stroke-width="12"></path></g><g transform="translate(326 281)"><path d="M17.6 -11C21.5 -3.4 22.6 5.1 19.1 12.6C15.7 20.1 7.9 26.6 0.7 26.2C-6.4 25.8 -12.7 18.4 -17.7 10C-22.6 1.6 -26.1 -7.7 -23 -15C-19.8 -22.2 -9.9 -27.3 -1.5 -26.5C6.8 -25.6 13.7 -18.7 17.6 -11Z" stroke="#6495ed" fill="none" stroke-width="12"></path></g><g transform="translate(532 133)"><path d="M23 -14.3C26.7 -6.9 24.4 3 19.6 10.9C14.8 18.9 7.4 25 -0.4 25.3C-8.2 25.5 -16.5 19.9 -20.4 12.4C-24.3 5 -23.9 -4.3 -19.8 -11.9C-15.7 -19.6 -7.9 -25.6 0.9 -26.1C9.6 -26.6 19.3 -21.6 23 -14.3Z" stroke="#6495ed" fill="none" stroke-width="12"></path></g><g transform="translate(864 398)"><path d="M39.5 -23.2C48.2 -7.7 50.3 11.3 42.6 25.2C34.9 39.1 17.5 48 2.2 46.8C-13.1 45.5 -26.2 34.1 -33 20.7C-39.8 7.3 -40.2 -8 -33.6 -22.3C-27 -36.6 -13.5 -49.8 0.9 -50.3C15.4 -50.9 30.7 -38.7 39.5 -23.2Z" stroke="#6495ed" fill="none" stroke-width="12"></path></g><g transform="translate(104 399)"><path d="M33 -20.1C39.3 -8 38.8 7.1 32.2 19.8C25.6 32.4 12.8 42.7 -1.1 43.3C-14.9 43.9 -29.8 34.9 -39 20.8C-48.2 6.6 -51.6 -12.6 -44.2 -25.3C-36.7 -38.1 -18.4 -44.4 -2.5 -42.9C13.3 -41.4 26.6 -32.2 33 -20.1Z" stroke="#6495ed" fill="none" stroke-width="12"></path></g><g transform="translate(484 430)"><path d="M10.2 -5.7C12.4 -2.1 12.8 2.7 10.8 6.4C8.7 10.2 4.4 12.8 -0.5 13.1C-5.4 13.4 -10.9 11.4 -13.3 7.4C-15.8 3.5 -15.2 -2.5 -12.5 -6.4C-9.8 -10.2 -4.9 -12 -0.4 -11.7C4 -11.5 8.1 -9.2 10.2 -5.7Z" stroke="#6495ed" fill="none" stroke-width="12"></path></g><g transform="translate(275 92)"><path d="M26.5 -16.3C31 -7.3 29.2 4.3 23.8 12.7C18.3 21.2 9.2 26.5 0 26.6C-9.2 26.6 -18.5 21.3 -23.1 13.3C-27.7 5.3 -27.7 -5.3 -23.1 -14.3C-18.4 -23.2 -9.2 -30.5 0.9 -31C10.9 -31.5 21.9 -25.2 26.5 -16.3Z" stroke="#6495ed" fill="none" stroke-width="12"></path></g></g></svg>