<?xml version="1.0" standalone="no"?>
<!DOCTYPE svg PUBLIC "-//W3C//DTD SVG 20010904//EN"
 "http://www.w3.org/TR/2001/REC-SVG-20010904/DTD/svg10.dtd">
<svg version="1.0" xmlns="http://www.w3.org/2000/svg"
 width="500.000000pt" height="500.000000pt" viewBox="0 0 500.000000 500.000000"
 preserveAspectRatio="xMidYMid meet">
<metadata>
Created by potrace 1.11, written by Peter Selinger 2001-2013
</metadata>
<g transform="translate(0.000000,500.000000) scale(0.100000,-0.100000)"
fill="#000000" stroke="none">
<path d="M2408 4745 c-2 -2 -37 -6 -78 -9 -153 -14 -295 -37 -407 -67 -43 -11
-86 -22 -96 -24 -31 -7 -170 -56 -232 -82 -226 -94 -416 -223 -598 -406 -128
-129 -276 -339 -330 -467 -8 -19 -23 -55 -34 -80 -54 -120 -113 -305 -129
-400 -3 -14 -7 -31 -9 -38 -6 -16 -26 -134 -31 -182 -2 -19 -5 -44 -8 -55 -18
-78 -27 -526 -13 -715 5 -66 31 -268 40 -310 2 -8 7 -33 11 -55 4 -22 12 -53
16 -70 5 -16 11 -41 14 -55 7 -38 50 -166 86 -255 120 -303 372 -640 620 -830
66 -50 158 -115 164 -115 2 0 32 -16 65 -35 34 -19 64 -34 66 -34 3 -1 18 -7
34 -15 58 -30 336 -116 426 -131 11 -2 48 -9 83 -15 107 -19 179 -27 316 -36
301 -21 644 -6 871 37 350 67 632 211 870 444 96 94 131 140 98 129 -10 -4 9
10 42 30 33 21 62 42 63 47 2 5 8 7 12 4 5 -3 11 -1 15 5 11 18 -29 10 -69
-15 -37 -22 -41 -23 -52 -7 -9 11 -13 12 -14 5 0 -7 -6 -13 -14 -13 -7 0 -25
-9 -39 -20 -14 -11 -33 -20 -44 -20 -10 0 -24 -9 -31 -20 -7 -12 -17 -18 -22
-15 -6 3 -10 2 -10 -3 0 -5 -14 -8 -32 -6 -18 2 -35 -1 -40 -8 -6 -10 -8 -10
-8 0 0 6 -7 12 -15 12 -8 0 -15 -4 -15 -8 0 -5 -12 -14 -27 -21 l-28 -13 23
22 c26 25 29 42 5 33 -10 -3 -1 6 19 21 20 14 44 26 53 26 9 0 13 4 10 10 -3
5 0 10 8 10 7 0 27 15 43 33 34 36 81 77 90 77 15 0 84 63 84 76 0 13 -5 12
-30 -3 -17 -9 -30 -20 -30 -24 0 -4 -29 -22 -65 -39 -36 -17 -68 -36 -71 -41
-3 -6 -12 -8 -20 -5 -8 3 -14 2 -14 -2 0 -4 -13 -13 -30 -19 -36 -13 -38 -7
-8 24 20 21 20 23 4 17 -14 -5 -17 -4 -12 5 4 7 -15 0 -43 -15 -28 -16 -51
-32 -51 -37 0 -4 -5 -5 -10 -2 -6 3 -13 -1 -16 -9 -3 -9 -11 -16 -16 -16 -5 0
-22 -9 -38 -20 -15 -11 -30 -16 -34 -12 -4 3 -10 2 -14 -4 -4 -6 -27 -21 -52
-33 -39 -19 -42 -20 -21 -3 15 12 21 24 16 32 -5 9 -4 11 4 6 7 -5 41 9 79 33
37 22 75 43 85 47 11 4 30 18 43 31 14 14 29 21 37 17 6 -4 9 -3 4 1 -4 5 0
19 9 33 9 13 11 21 4 17 -9 -6 -9 -3 -1 13 6 12 16 24 21 27 5 3 15 15 20 25
9 16 8 18 -6 13 -13 -5 -15 -3 -9 8 4 8 -7 -1 -25 -19 -18 -18 -35 -30 -38
-27 -4 3 0 10 8 15 14 9 7 14 -15 11 -5 -1 6 13 25 31 43 40 18 31 -58 -20
-86 -58 -230 -120 -250 -108 -5 3 -25 -4 -46 -15 -32 -17 -162 -69 -172 -69
-3 0 3 11 12 25 9 14 21 25 28 25 6 0 40 18 76 40 36 22 58 40 50 40 -8 0 -32
-11 -54 -24 -21 -14 -46 -22 -54 -18 -11 4 -13 2 -7 -9 7 -12 6 -12 -7 -1 -9
7 -14 21 -11 33 4 14 8 17 13 9 5 -8 9 -4 13 10 3 12 10 19 16 15 6 -3 11 -2
11 4 0 5 9 8 20 6 12 -2 18 0 15 6 -4 5 -11 7 -16 4 -5 -4 -9 1 -9 9 0 9 3 16
8 15 4 -1 18 2 30 6 16 5 20 10 12 15 -8 5 0 11 19 18 17 6 31 14 31 18 0 3
-7 3 -16 0 -12 -4 -15 -2 -11 9 6 15 -17 8 -135 -44 -31 -13 -47 -16 -45 -8 3
17 38 36 56 29 8 -3 12 -1 8 5 -4 6 19 22 54 38 102 46 51 38 -65 -10 -14 -6
-17 -5 -11 4 6 10 2 12 -16 7 -21 -6 -21 -5 4 9 15 9 27 18 27 21 0 3 -4 2
-10 -1 -5 -3 -10 -2 -10 3 0 4 25 19 56 31 30 13 53 25 51 27 -2 2 -21 -3 -42
-11 -20 -9 -39 -14 -41 -12 -2 2 26 16 63 32 38 15 88 39 113 54 25 14 49 24
53 23 5 -1 5 2 2 8 -4 7 0 10 11 8 12 -2 18 2 16 11 -2 8 3 11 12 8 8 -3 17 1
20 9 3 9 10 13 15 10 4 -3 16 3 26 14 10 11 14 20 9 20 -5 0 -2 5 6 10 10 7
11 10 2 10 -7 0 -15 -6 -18 -13 -3 -8 -10 -14 -17 -14 -7 0 -50 -26 -96 -58
-50 -35 -82 -52 -78 -42 5 14 0 13 -26 -6 -17 -13 -39 -27 -49 -30 -27 -9 -31
6 -6 26 l23 19 -25 -6 -25 -5 24 20 c27 22 14 26 -15 4 -10 -8 -23 -15 -29
-15 -5 0 1 7 14 16 15 11 19 19 12 24 -8 4 -5 14 9 30 11 13 20 25 20 27 0 4
-62 -28 -70 -37 -9 -9 -65 -34 -72 -32 -5 1 -8 -3 -8 -9 0 -5 -4 -7 -10 -4 -5
3 -10 1 -10 -4 0 -6 -5 -11 -11 -11 -6 0 -17 -7 -26 -15 -8 -8 -19 -13 -24
-10 -5 4 -9 2 -9 -3 0 -5 -19 -15 -42 -21 -24 -7 -49 -15 -57 -18 -9 -4 -11
-1 -7 8 4 8 0 5 -8 -5 -12 -15 -16 -16 -16 -5 0 12 -2 12 -10 -1 -11 -17 -21
-10 -23 18 -1 18 -3 18 -34 6 -18 -8 -49 -23 -69 -34 -20 -12 -81 -32 -137
-47 -136 -35 -359 -37 -477 -5 -149 41 -229 84 -327 175 -56 53 -163 205 -169
240 -1 7 -11 39 -22 72 -11 33 -28 87 -37 120 -20 71 -51 134 -69 141 -16 6
-29 72 -31 159 -1 33 -7 73 -13 88 -15 35 -15 50 -2 42 6 -3 11 2 11 12 4 51
3 69 -5 81 -5 7 -5 12 1 12 10 0 17 73 14 138 0 17 3 32 8 32 5 0 12 7 15 16
4 9 2 13 -5 8 -8 -4 -8 0 0 15 12 21 20 64 25 136 5 62 36 242 56 320 43 172
130 320 265 448 100 96 282 179 422 193 99 9 193 10 196 1 1 -4 20 -9 42 -11
112 -12 225 -56 225 -89 0 -5 10 -18 23 -29 12 -11 16 -17 10 -13 -7 3 -13 1
-13 -4 0 -6 5 -11 11 -11 8 0 8 -4 0 -14 -10 -11 -8 -16 8 -21 29 -9 45 3 30
21 -9 11 -8 14 4 14 8 0 17 -7 21 -15 3 -8 9 -14 13 -13 4 0 22 -4 38 -11 17
-7 41 -17 53 -22 13 -5 26 -18 29 -30 3 -12 12 -19 22 -16 9 1 43 -17 75 -42
33 -25 56 -40 52 -33 -4 7 20 -4 54 -24 62 -36 84 -39 60 -7 -8 10 3 2 23 -18
20 -20 54 -45 75 -54 20 -10 52 -31 70 -47 18 -15 38 -25 44 -22 7 4 8 2 4 -4
-6 -11 5 -16 26 -13 4 0 33 -17 65 -38 32 -21 60 -36 63 -34 3 3 -1 8 -8 10
-6 3 -9 10 -6 15 4 6 2 8 -4 4 -6 -3 -13 -2 -17 3 -6 10 41 5 59 -7 26 -15
112 -19 138 -6 15 8 34 11 42 8 11 -4 16 -1 16 10 0 9 3 16 8 16 4 0 12 8 18
18 9 14 8 27 -7 57 -21 43 -23 58 -10 83 13 24 24 56 23 64 -1 4 12 5 29 3 53
-7 61 4 26 37 l-32 30 31 -21 c17 -11 37 -27 44 -36 14 -17 46 -20 55 -5 7 12
-17 69 -41 95 -52 55 -104 119 -104 127 0 4 19 -3 43 -17 l42 -26 -35 30 c-19
17 -29 31 -21 31 11 0 10 5 -4 20 -20 22 -14 26 16 10 15 -8 19 -7 19 4 0 8
-5 18 -12 22 -7 4 -8 3 -4 -4 5 -8 1 -10 -10 -5 -11 4 -13 8 -6 11 7 2 10 8 6
13 -13 22 28 1 91 -46 19 -13 22 -13 33 5 11 18 10 20 -9 20 -13 0 -18 -4 -14
-12 4 -7 -2 -3 -13 9 -11 12 -22 19 -26 16 -3 -4 -6 -1 -6 5 0 7 7 12 15 12 8
0 15 -7 15 -16 0 -8 4 -13 10 -9 15 9 -6 53 -50 103 -22 24 -40 49 -40 54 0 9
38 -11 100 -52 47 -31 54 -34 45 -19 -5 8 0 6 12 -4 20 -17 21 -17 26 2 3 11
2 20 -2 19 -13 -2 -41 14 -41 25 0 5 8 3 18 -5 9 -9 23 -13 30 -11 6 3 12 0
12 -6 0 -17 17 -13 24 5 3 8 2 12 -4 9 -5 -3 -16 9 -24 27 -15 31 -60 76 -168
167 -50 42 -51 54 -2 45 34 -6 35 -6 37 -32 0 -11 4 -19 8 -16 4 2 22 -10 40
-27 17 -16 38 -28 46 -25 8 3 11 2 8 -3 -6 -11 54 -71 70 -71 6 1 1 7 -9 15
-11 8 -16 15 -12 15 5 0 -3 15 -18 34 -14 19 -26 38 -26 41 0 11 -98 134 -154
194 -95 101 -165 161 -266 229 -47 31 -86 60 -88 65 -2 4 -11 7 -20 7 -9 0
-28 9 -42 20 -14 11 -29 20 -33 20 -5 0 -37 13 -72 29 -88 41 -262 96 -370
117 -69 14 -252 43 -306 49 -57 7 -555 15 -561 10z m1766 -1262 l20 -27 -27
20 c-28 20 -44 46 -24 38 7 -3 21 -17 31 -31z m-685 -2297 c-2 -2 -15 -9 -29
-15 -24 -11 -24 -11 -6 3 16 13 49 24 35 12z m-59 -31 c0 -2 -18 -14 -40 -25
-22 -11 -40 -18 -40 -14 0 4 -6 3 -13 -2 -7 -5 -1 1 13 14 14 12 30 20 36 18
6 -2 17 0 25 5 16 10 19 11 19 4z m44 -3 c3 -5 -1 -9 -9 -9 -8 0 -12 4 -9 9 3
4 7 8 9 8 2 0 6 -4 9 -8z m411 -32 c-3 -5 -12 -10 -18 -10 -7 0 -6 4 3 10 19
12 23 12 15 0z m-470 -70 c-3 -5 -11 -10 -16 -10 -6 0 -7 5 -4 10 3 6 11 10
16 10 6 0 7 -4 4 -10z m421 -26 c-30 -21 -42 -17 -15 5 13 11 26 17 29 14 3
-2 -4 -11 -14 -19z"/>
<path d="M3680 1279 c-19 -12 -51 -37 -72 -56 -20 -19 -41 -32 -47 -28 -6 3
-10 2 -9 -4 2 -5 -6 -17 -17 -25 -11 -9 -15 -15 -7 -16 17 0 92 48 92 60 0 5
8 7 18 4 13 -4 14 -3 4 4 -10 7 -2 16 32 36 44 25 66 46 49 46 -4 0 -24 -9
-43 -21z"/>
<path d="M3960 885 c-11 -13 -10 -14 4 -9 9 3 16 10 16 15 0 13 -6 11 -20 -6z"/>
<path d="M3976 858 c3 -4 11 -5 19 -1 21 7 19 12 -4 10 -11 0 -18 -5 -15 -9z"/>
</g>
</svg>
